inDegrees=no
num_controls=7
num_derivatives=13
num_iterations=97
num_multipliers=7
num_parameters=0
num_slacks=7
num_states=26
objective=0.341484
objective_accelerations=0.018329
objective_balance=0.000732
objective_effort=0.016005
objective_height=0.304630
objective_ligament=0.001788
solver_duration=1010.130629
status=Solve_Succeeded
success=true
DataType=double
version=3
OpenSimVersion=4.5
endheader
time	/jointset/ground_pelvis/pelvis_tilt/value	/jointset/ground_pelvis/pelvis_tx/value	/jointset/ground_pelvis/pelvis_ty/value	/jointset/hip_r/hip_flexion_r/value	/jointset/hip_r/hip_adduction_r/value	/jointset/hip_r/hip_rotation_r/value	/jointset/back/lumbar_extension/value	/jointset/patellofemoral_r/patellar_flexion_r/value	/jointset/knee_r/knee_flexion_r/value	/jointset/knee_r/knee_adduction_r/value	/jointset/knee_r/knee_rotation_r/value	/jointset/ankle_r/ankle_angle_r/value	/jointset/subtalar_r/subtalar_angle_r/value	/jointset/ground_pelvis/pelvis_tilt/speed	/jointset/ground_pelvis/pelvis_tx/speed	/jointset/ground_pelvis/pelvis_ty/speed	/jointset/hip_r/hip_flexion_r/speed	/jointset/hip_r/hip_adduction_r/speed	/jointset/hip_r/hip_rotation_r/speed	/jointset/back/lumbar_extension/speed	/jointset/patellofemoral_r/patellar_flexion_r/speed	/jointset/knee_r/knee_flexion_r/speed	/jointset/knee_r/knee_adduction_r/speed	/jointset/knee_r/knee_rotation_r/speed	/jointset/ankle_r/ankle_angle_r/speed	/jointset/subtalar_r/subtalar_angle_r/speed	/forceset/tau_hip_flexion_r	/forceset/tau_hip_adduction_r	/forceset/tau_hip_rotation_r	/forceset/tau_knee_flexion_r	/forceset/tau_ankle_angle_r	/forceset/tau_subtalar_angle_r	/forceset/tau_lumbar_extension	lambda_cid13_p0	lambda_cid14_p0	lambda_cid14_p1	lambda_cid14_p2	lambda_cid14_p3	lambda_cid14_p4	lambda_cid14_p5	/jointset/ground_pelvis/pelvis_tilt/accel	/jointset/ground_pelvis/pelvis_tx/accel	/jointset/ground_pelvis/pelvis_ty/accel	/jointset/hip_r/hip_flexion_r/accel	/jointset/hip_r/hip_adduction_r/accel	/jointset/hip_r/hip_rotation_r/accel	/jointset/back/lumbar_extension/accel	/jointset/patellofemoral_r/patellar_flexion_r/accel	/jointset/knee_r/knee_flexion_r/accel	/jointset/knee_r/knee_adduction_r/accel	/jointset/knee_r/knee_rotation_r/accel	/jointset/ankle_r/ankle_angle_r/accel	/jointset/subtalar_r/subtalar_angle_r/accel	gamma_cid13_p0	gamma_cid14_p0	gamma_cid14_p1	gamma_cid14_p2	gamma_cid14_p3	gamma_cid14_p4	gamma_cid14_p5
0.5	0.005152401915892354	0.09210564632107807	0.8777660193979089	0.4906834892299399	-0.2345013454716331	-0.1432730547087482	-0.6072167738515699	0.7012924365888299	0.701292436588831	0.03849219805567757	0.1745180721491056	0.2792620867118525	0.1154203079070145	0.04027731302633168	-0.08906453140396697	-0.2123635832173777	0.7855670216656703	-0.007209014722470675	0.1887541957001	-0.7501754586414816	1.264113526644715	1.264113526644713	-0.2693182506131377	0.0001790379269006848	0.517639380229031	0.1768477572332559	-0.1060626897432529	0.01290916641358436	0.01920829799843668	-0.2450484840796625	-0.048633561545197	-0.01248668586718867	0.1820026149927972	-20.93601718986292	-59.40799889581768	-12.61909688908002	-1.228010273884766	2.161983328975395	-653.1826554702228	56.17814230236378	-0.02608533018797743	0.2153012781630766	-0.1822095744498321	-0.646622941124345	-0.0861478708092242	-0.4469946967085816	1.107140568249169	-0.8761289569197025	-0.8761289569197034	0.2743827865016695	0.01762774310602748	-0.2922656692024266	-0.06741013361961315	4.894660902358971e-10	3.823605750821562e-08	3.497187493060851e-07	4.089183712851068e-07	-6.476584551842534e-08	6.004252445505026e-08	1.331374993879769e-08
0.51	0.005553707214424936	0.09122588210435557	0.875633700709041	0.4985058708762387	-0.2345776851566793	-0.1414086281691205	-0.6146619893377205	0.7138879768423845	0.7138879768423871	0.03581248250129319	0.174521182116061	0.2844231777134958	0.1171852445444451	0.03998791523351868	-0.0868756363920547	-0.2140539229345679	0.7787818119751183	-0.008089268807054632	0.1842476267169177	-0.7387695353210243	1.254820367562328	1.254820367562328	-0.2664620006610443	0.000385843084159511	0.5145009622873633	0.1760591267526975	-0.1093427156649068	0.01390660217318459	0.01966406250277908	-0.247916036220288	-0.05085342819928187	-0.0121534426701312	0.1856065741850711	-20.35540844843636	-60.24904009322975	-12.71607505143865	-1.104670607669589	2.372621792759857	-655.3294984037258	56.18189277762105	-0.02973845612945453	0.2225666730844184	-0.1554894126445514	-0.7135878547886791	-0.09335340740688554	-0.4349448434221305	1.172033704086874	-0.9820352346655603	-0.9820352346654134	0.3157715089184496	0.01378380569654324	-0.3363263196998584	-0.09649771981482115	1.032858634535126e-08	6.334271496844739e-08	4.594363740939142e-07	7.140367124348333e-07	-9.203862310721722e-08	1.109270309981344e-07	-7.534616277768292e-08
0.52	0.005952244244569081	0.09036838344982803	0.8734858699745429	0.5062565768512782	-0.2346637052285961	-0.1395857586881845	-0.621990202492638	0.7263853603349619	0.726385360334966	0.03316623452830043	0.1745246755153213	0.2895505452431124	0.118939913234162	0.03972365934864155	-0.08461141896497779	-0.2154659923433955	0.7712318874138371	-0.009145092096571824	0.1804427839617724	-0.7267749923948527	1.244482174449247	1.244482174449247	-0.2626247343348047	0.0002557243878476577	0.5108946858236557	0.1747941676905042	-0.1126227415865606	0.01490403793278474	0.02011982700712227	-0.2507835883609134	-0.05307329485336679	-0.0118201994730739	0.1892105333773524	-19.77432106268008	-61.09448356094443	-12.81601586828692	-0.9783535111031457	2.583145978426687	-657.5368136009354	56.1629699625794	-0.0210569486008008	0.2303657611960024	-0.1265555127773066	-0.7995659152708924	-0.1212617117958863	-0.3066494511011906	1.224864489392019	-1.08513576305855	-1.085135763058484	0.4705860613308909	-0.04975702760810813	-0.3858373736107532	-0.1626758499466031	7.202356109540829e-09	6.231876284764191e-08	4.727328250885882e-07	6.773381536920565e-07	-9.341080507040487e-08	1.126539053347871e-07	-4.125885073435226e-08
0.53	0.006348180478225376	0.08953387968493638	0.8713253121301709	0.5139282250894971	-0.2347607726653809	-0.1377987652117416	-0.6291955250099474	0.738774268459383	0.7387742684593841	0.03056169292340959	0.1745258189847911	0.2946396987181342	0.1206802005220642	0.03946320883954541	-0.08227886382768958	-0.2165981320470569	0.7629898056991573	-0.01025493899569213	0.1769281970442349	-0.7141954063625999	1.23313225863648	1.233132258636483	-0.2582942958499087	-2.388600175044915e-05	0.5068765703685714	0.1732565124853074	-0.1157778323328101	0.01596958762767495	0.02048711067909943	-0.2537141847198669	-0.05517960031298663	-0.01145498767110134	0.1927102404204794	-19.19284927061007	-61.9000397567191	-12.89463689608383	-0.8559523976420115	2.764437665500124	-659.7212775761378	56.19218767355874	-0.02859306082687765	0.2362520915349067	-0.09940381437964173	-0.8527163508904388	-0.1036768882609208	-0.3779664842875105	1.288621365803584	-1.184999372220251	-1.184999372219856	0.4127605239964158	-0.0164590358182587	-0.4187321448919162	-0.1501733440145451	4.257378469430005e-09	6.155965220872526e-08	4.909790297671945e-07	6.456724487524274e-07	-9.533553099644879e-08	1.133077468482679e-07	-5.996711136671169e-09
0.54	0.006741501415038147	0.08872301181172554	0.8691548607657186	0.5215142151003042	-0.2348685047130152	-0.1360477382389156	-0.6362722285258019	0.7510446614493097	0.7510446614493076	0.02800015325975315	0.1745242871521284	0.2996868843359171	0.1224049386602727	0.03920059997993504	-0.07988424062882009	-0.2174446963594816	0.754100241931521	-0.01127801426644516	0.1732494832383981	-0.7010511921038779	1.220779147550334	1.22077914755034	-0.2540243460879141	-0.0002793360386317669	0.5025011143758312	0.1716843377517776	-0.1189329230790594	0.01703513732256511	0.02085439435107656	-0.2566447810788203	-0.05728590577260646	-0.01108977586912886	0.1962099474636063	-18.61127323560907	-62.71075857858027	-12.97583357313199	-0.73123085098314	2.945417625730022	-661.9796437727887	56.20376792114715	-0.02148861870364316	0.2427793735122551	-0.0694404345299823	-0.9290623258621732	-0.1039073861224326	-0.3394748287610528	1.337790134685882	-1.285774817734427	-1.285774817734427	0.4584883167505997	-0.04492495706268479	-0.4573054811688973	-0.1695797556131915	1.512935616050662e-09	6.109355767743029e-08	5.14701557670577e-07	6.195750075950046e-07	-9.787158215799328e-08	1.127744031105798e-07	3.056523767007852e-08
